{
    "asset" : {
        "generator" : "Khronos glTF Blender I/O v3.4.50",
        "version" : "2.0"
    },
    "scene" : 0,
    "scenes" : [
        {
            "name" : "Scene",
            "nodes" : [
                0
            ]
        }
    ],
    "nodes" : [
        {
            "mesh" : 0,
            "name" : "Text",
            "rotation" : [
                0.7071068286895752,
                0,
                0,
                0.7071068286895752
            ],
            "translation" : [
                -5.716385364532471,
                0.31052789092063904,
                0.5638811588287354
            ]
        }
    ],
    "meshes" : [
        {
            "name" : "Text",
            "primitives" : [
                {
                    "attributes" : {
                        "POSITION" : 0,
                        "TEXCOORD_0" : 1,
                        "NORMAL" : 2
                    },
                    "indices" : 3
                }
            ]
        }
    ],
    "accessors" : [
        {
            "bufferView" : 0,
            "componentType" : 5126,
            "count" : 25885,
            "max" : [
                11.425251007080078,
                0.17999999225139618,
                0.02882368676364422
            ],
            "min" : [
                0.01918593980371952,
                -0.17999999225139618,
                -0.6971821188926697
            ],
            "type" : "VEC3"
        },
        {
            "bufferView" : 1,
            "componentType" : 5126,
            "count" : 25885,
            "type" : "VEC2"
        },
        {
            "bufferView" : 2,
            "componentType" : 5126,
            "count" : 25885,
            "type" : "VEC3"
        },
        {
            "bufferView" : 3,
            "componentType" : 5123,
            "count" : 110700,
            "type" : "SCALAR"
        }
    ],
    "bufferViews" : [
        {
            "buffer" : 0,
            "byteLength" : 310620,
            "byteOffset" : 0,
            "target" : 34962
        },
        {
            "buffer" : 0,
            "byteLength" : 207080,
            "byteOffset" : 310620,
            "target" : 34962
        },
        {
            "buffer" : 0,
            "byteLength" : 310620,
            "byteOffset" : 517700,
            "target" : 34962
        },
        {
            "buffer" : 0,
            "byteLength" : 221400,
            "byteOffset" : 828320,
            "target" : 34963
        }
    ],
    "buffers" : [
        {
            "byteLength" : 1049720,
            "uri" : "data:application/octet-stream;base64,"
        }
    ]
}
